<svg xmlns="http://www.w3.org/2000/svg" xmlns:xlink="http://www.w3.org/1999/xlink" viewBox="0 0 76.65 66.48"><defs><style>.cls-1{fill:#d50812;}.cls-2{fill:#fff;}.cls-3{fill:url(#linear-gradient);}</style><linearGradient id="linear-gradient" x1="19.12" y1="19.3" x2="42.76" y2="51.38" gradientTransform="matrix(1, 0, 0, -1, 0, 67.48)" gradientUnits="userSpaceOnUse"><stop offset="0" stop-color="#d50812"/><stop offset="0.05" stop-color="#d6101a"/><stop offset="0.13" stop-color="#da262e"/><stop offset="0.23" stop-color="#e04950"/><stop offset="0.34" stop-color="#e87a80"/><stop offset="0.47" stop-color="#f3b9bc"/><stop offset="0.59" stop-color="#fff"/></linearGradient></defs><g id="Layer_2" data-name="Layer 2"><g id="Layer_1-2" data-name="Layer 1"><path class="cls-1" d="M56.49,0H20.16a2,2,0,0,0-1.72,1L.27,32.25a2,2,0,0,0,0,2L18.43,65.48a2,2,0,0,0,1.73,1H56.85A1.39,1.39,0,0,0,58,65.8L76.38,34.23a2,2,0,0,0,0-2L58.21,1a2,2,0,0,0-1.72-1"/><path class="cls-2" d="M64.49,32.58,52,11.1a1.37,1.37,0,0,0-1.19-.69H40.72L54.07,33.25,40.72,56.1h10.1A1.39,1.39,0,0,0,52,55.42L64.5,33.94a1.37,1.37,0,0,0,0-1.36"/><path class="cls-3" d="M48.49,32.58,36,11.1a1.37,1.37,0,0,0-1.19-.69H24.72L38.07,33.25,24.72,56.1h10.1A1.39,1.39,0,0,0,36,55.42L48.5,33.94a1.37,1.37,0,0,0,0-1.36"/><path class="cls-2" d="M22.57,33.26H12a1.39,1.39,0,0,0,.18.69L24.63,55.43a1.37,1.37,0,0,0,1.19.68H35.91L22.57,33.27Z"/></g></g></svg>